<svg width="24" height="24" viewBox="0 0 24 24" fill="none" xmlns="http://www.w3.org/2000/svg">
<g clip-path="url(#clip0_98_2)">
<path d="M20.317 7.51646C18.761 6.80222 17.119 6.2929 15.4319 6.00126C15.4166 5.9984 15.4007 6.00044 15.3867 6.00711C15.3726 6.01377 15.3609 6.0247 15.3534 6.03836C15.1424 6.41366 14.9087 6.90316 14.7451 7.28786C12.9004 7.01166 11.0651 7.01166 9.2583 7.28786C9.0947 6.89456 8.8525 6.41366 8.6406 6.03836C8.63276 6.02501 8.62107 6.01434 8.60706 6.00774C8.59306 6.00114 8.57739 5.99892 8.5621 6.00136C6.87488 6.29232 5.2327 6.8016 3.6769 7.51636C3.66359 7.52204 3.65238 7.53172 3.6448 7.54406C0.533404 12.1925 -0.318996 16.7266 0.099204 21.2045C0.100386 21.2154 0.103757 21.226 0.109116 21.2357C0.114476 21.2453 0.121714 21.2538 0.130404 21.2606C2.1832 22.7682 4.1717 23.6834 6.1233 24.29C6.13848 24.2945 6.15468 24.2943 6.16972 24.2893C6.18477 24.2844 6.19795 24.275 6.2075 24.2624C6.6691 23.632 7.0806 22.9672 7.4335 22.2682C7.43835 22.2586 7.44112 22.2481 7.44163 22.2374C7.44213 22.2267 7.44036 22.216 7.43643 22.206C7.4325 22.196 7.4265 22.1869 7.41883 22.1794C7.41115 22.1719 7.40198 22.1662 7.3919 22.1625C6.7391 21.9149 6.1176 21.613 5.5197 21.2702C5.5088 21.2638 5.49964 21.2548 5.49304 21.244C5.48643 21.2332 5.48258 21.221 5.48183 21.2083C5.48108 21.1957 5.48345 21.1831 5.48873 21.1716C5.49401 21.1601 5.50204 21.1501 5.5121 21.1425C5.6379 21.0482 5.7638 20.9502 5.8839 20.8511C5.89458 20.8423 5.9075 20.8366 5.92121 20.8348C5.93492 20.8329 5.94887 20.8349 5.9615 20.8406C9.8893 22.6339 14.1415 22.6339 18.0229 20.8406C18.0355 20.8345 18.0496 20.8322 18.0635 20.8339C18.0774 20.8356 18.0906 20.8412 18.1014 20.8501C18.2216 20.9491 18.3474 21.0482 18.4742 21.1425C18.4843 21.15 18.4924 21.16 18.4977 21.1714C18.5031 21.1828 18.5055 21.1954 18.5049 21.208C18.5042 21.2206 18.5005 21.2329 18.494 21.2437C18.4875 21.2545 18.4784 21.2636 18.4676 21.2701C17.8695 21.6194 17.2429 21.9176 16.5946 22.1615C16.5845 22.1653 16.5754 22.1712 16.5678 22.1789C16.5602 22.1865 16.5542 22.1956 16.5504 22.2057C16.5466 22.2158 16.5449 22.2265 16.5455 22.2373C16.5461 22.2481 16.549 22.2586 16.5539 22.2682C16.9143 22.9662 17.3258 23.631 17.7789 24.2614C17.7882 24.2744 17.8013 24.2841 17.8164 24.2893C17.8315 24.2944 17.8478 24.2946 17.8631 24.29C19.8241 23.6833 21.8126 22.7681 23.8654 21.2606C23.8742 21.2541 23.8816 21.2458 23.887 21.2363C23.8924 21.2268 23.8957 21.2163 23.8967 21.2054C24.3971 16.0284 23.0585 11.5315 20.3482 7.54496C20.3416 7.53201 20.3305 7.52196 20.317 7.51646ZM8.02 18.4779C6.8375 18.4779 5.8631 17.3922 5.8631 16.0589C5.8631 14.7257 6.8186 13.64 8.0201 13.64C9.2309 13.64 10.1958 14.7352 10.1769 16.059C10.1769 17.3922 9.2214 18.4779 8.02 18.4779ZM15.9948 18.4779C14.8123 18.4779 13.8379 17.3922 13.8379 16.0589C13.8379 14.7257 14.7933 13.64 15.9948 13.64C17.2056 13.64 18.1705 14.7352 18.1516 16.059C18.1516 17.3922 17.2056 18.4779 15.9948 18.4779Z" fill="white"/>
</g>
<defs>
<clipPath id="clip0_98_2">
<rect width="24" height="24" fill="white"/>
</clipPath>
</defs>
</svg>
