<svg width="24" height="24" viewBox="0 0 24 24" fill="none" xmlns="http://www.w3.org/2000/svg">
<path d="M12 6C7.0275 6 3 10.1321 3 15.2285C3 19.3067 5.5785 22.7651 9.15375 23.9841C9.60375 24.071 9.76875 23.7856 9.76875 23.5403C9.76875 23.3211 9.76125 22.7405 9.7575 21.9715C7.254 22.5283 6.726 20.7333 6.726 20.7333C6.3165 19.6682 5.72475 19.3836 5.72475 19.3836C4.9095 18.8115 5.78775 18.823 5.78775 18.823C6.6915 18.8876 7.16625 19.7735 7.16625 19.7735C7.96875 21.1847 9.273 20.7771 9.7875 20.5411C9.8685 19.9443 10.1003 19.5375 10.3575 19.3067C8.35875 19.076 6.258 18.2824 6.258 14.7463C6.258 13.7389 6.60675 12.916 7.18425 12.27C7.083 12.037 6.77925 11.0988 7.263 9.82752C7.263 9.82752 8.01675 9.57989 9.738 10.7734C10.458 10.5681 11.223 10.4666 11.988 10.462C12.753 10.4666 13.518 10.5681 14.238 10.7734C15.948 9.57989 16.7017 9.82752 16.7017 9.82752C17.1855 11.0988 16.8817 12.037 16.7917 12.27C17.3655 12.916 17.7142 13.7389 17.7142 14.7463C17.7142 18.2916 15.6105 19.0722 13.608 19.299C13.923 19.5759 14.2155 20.1419 14.2155 21.0063C14.2155 22.2414 14.2043 23.2335 14.2043 23.5334C14.2043 23.7756 14.3617 24.064 14.823 23.9718C18.4238 22.7613 21 19.3006 21 15.2285C21 10.1321 16.9702 6 12 6Z" fill="white"/>
</svg>
