<svg width="24" height="24" viewBox="0 0 24 24" fill="none" xmlns="http://www.w3.org/2000/svg">
<g clip-path="url(#clip0_98_6)">
<path d="M23.881 13.593C23.108 9.508 19.022 9 19.022 9H0.722955C0.118955 9 0.0439547 9.798 0.0439547 9.798C0.0439547 9.798 -0.0380453 17.122 0.0219547 21.62C0.185955 24.044 2.60795 24.292 2.60795 24.292C2.60795 24.292 10.875 24.269 14.574 24.243C17.012 23.817 17.257 21.677 17.232 20.509C21.584 20.749 24.654 17.678 23.881 13.593ZM12.819 17.104C11.573 18.557 8.80795 21.08 8.80795 21.08C8.80795 21.08 8.68696 21.199 8.49796 21.103C8.42196 21.046 8.38996 21.013 8.38996 21.013C7.94696 20.572 5.02195 17.964 4.35595 17.059C3.64695 16.094 3.31495 14.359 4.26495 13.349C5.21595 12.339 7.26996 12.263 8.62796 13.756C8.62796 13.756 10.193 11.974 12.096 12.793C14 13.613 13.928 15.804 12.819 17.104ZM18.992 17.582C18.064 17.698 17.31 17.61 17.31 17.61V11.929H19.08C19.08 11.929 21.051 12.48 21.051 14.567C21.051 16.48 20.066 17.234 18.992 17.582Z" fill="white"/>
</g>
<defs>
<clipPath id="clip0_98_6">
<rect width="24" height="24" fill="white"/>
</clipPath>
</defs>
</svg>
