<svg width="240" height="240" viewBox="0 0 240 240" fill="none" xmlns="http://www.w3.org/2000/svg">
<path d="M240 120C240 186.274 186.274 240 120 240C53.7258 240 0 186.274 0 120C0 53.7258 53.7258 0 120 0C186.274 0 240 53.7258 240 120Z" fill="url(#paint0_radial_32_10)"/>
<path d="M235 120C235 183.513 183.513 235 120 235C56.4873 235 5 183.513 5 120C5 56.4873 56.4873 5 120 5C183.513 5 235 56.4873 235 120Z" stroke="black" stroke-opacity="0.5" stroke-width="10"/>
<rect x="61.5" y="121.974" width="56.5259" height="56.5259" fill="#7A59FF"/>
<rect x="121.474" y="121.974" width="56.5259" height="56.5259" fill="#50AE06"/>
<rect x="61.5" y="62" width="56.5259" height="56.5259" fill="#D00000"/>
<rect x="121.474" y="62" width="56.5259" height="56.5259" fill="#0B8800"/>
<defs>
<radialGradient id="paint0_radial_32_10" cx="0" cy="0" r="1" gradientUnits="userSpaceOnUse" gradientTransform="translate(120 120) rotate(90) scale(120)">
<stop offset="0.403477" stop-color="#5626BB"/>
<stop offset="1" stop-color="#321471"/>
</radialGradient>
</defs>
</svg>
