<svg width="24" height="24" viewBox="0 0 24 24" fill="none" xmlns="http://www.w3.org/2000/svg">
<path d="M5.712 1.59601L4.956 1.66401L4.718 2.21401L5.452 2.19701L5.712 1.59601ZM7.102 2.52301L6.124 2.66001L5.798 3.46701L6.758 3.34701L7.102 2.52301ZM4.89 3.53501L4.17 3.58501L3.93 4.15201L4.651 4.13501L4.89 3.53501ZM8.614 3.84401L7.327 3.91201L6.933 4.87201L8.203 4.82001L8.614 3.84401ZM10.484 4.41001L8.905 4.47901L8.339 5.83601L9.935 5.74801L10.483 4.41001H10.484ZM6.296 4.44701L5.319 4.60001L4.976 5.40601L5.952 5.28601L6.296 4.44701ZM12.44 5.11501L10.57 5.25001L9.933 6.77701L11.803 6.62301L12.44 5.11501ZM15.365 5.33401C15.255 5.33401 15.143 5.33401 15.031 5.33601L14.264 7.18601C15.658 7.15601 16.784 7.27501 17.637 7.56601L15.889 11.767C14.934 11.463 13.807 11.323 12.529 11.373L11.989 12.678C13.1257 12.5898 14.2688 12.7243 15.354 13.074L13.691 17.088C12.434 16.818 11.309 16.693 10.304 16.744L9.522 18.631C12.885 18.185 15.87 19.453 18.531 22.404L24 9.23001C21.675 6.65501 18.8 5.35001 15.363 5.33401H15.365ZM14.721 5.33601L12.697 5.45601L12.01 7.13601L14.035 6.94601L14.721 5.33601ZM4.118 5.38601L3.399 5.42201L3.175 5.98801H3.878L4.118 5.38601ZM7.808 5.78301L6.521 5.85201L6.126 6.81101L7.396 6.76101L7.808 5.78301ZM5.54 6.30001L4.546 6.45401L4.202 7.26101L5.182 7.14001L5.54 6.30001ZM9.677 6.36601L8.097 6.43501L7.53 7.77001L9.126 7.68501L9.676 6.36501L9.677 6.36601ZM11.632 7.05401L9.762 7.18901L9.126 8.71601L11.013 8.56201L11.632 7.05401ZM13.914 7.24401L11.904 7.38001L11.204 9.06201L13.244 8.87201L13.914 7.24201V7.24401ZM3.344 7.31001L2.605 7.34501L2.367 7.90901H3.087L3.344 7.31001ZM7.049 7.60301L5.746 7.68801L5.352 8.64801L6.639 8.61401L7.049 7.60301ZM18.888 7.85801C19.9408 8.19328 20.8946 8.78302 21.665 9.57501L19.915 13.812C19.298 13.228 18.765 12.851 18.304 12.663L17.103 12.165L18.888 7.85801ZM4.733 8.22001L3.757 8.37401L3.413 9.18101L4.374 9.06101L4.734 8.22001H4.733ZM8.919 8.22001L7.325 8.27201L6.776 9.62601L8.37 9.54001L8.919 8.22001ZM10.876 8.88801L8.99 9.04001L8.371 10.548L10.241 10.413L10.877 8.88601L10.876 8.88801ZM13.123 9.16301L11.116 9.28301L10.413 10.948L12.455 10.792L13.123 9.16301ZM2.52 9.26701L1.802 9.30001L1.562 9.84901L2.28 9.83301L2.52 9.26701ZM6.245 9.54001L4.956 9.61001L4.546 10.57L5.833 10.54L6.245 9.54001ZM8.115 10.14L6.519 10.19L5.969 11.546L7.567 11.462L8.115 10.14ZM3.929 10.177L2.95 10.313L2.626 11.118L3.586 10.999L3.929 10.177ZM10.069 10.81L8.199 10.964L7.546 12.491L9.452 12.337L10.069 10.81ZM12.336 11.085L10.31 11.205L9.624 12.868L11.649 12.696L12.336 11.085ZM1.767 11.116L1.028 11.153L0.79 11.718L1.51 11.702L1.767 11.116ZM5.44 11.478L4.151 11.546L3.741 12.524L5.046 12.474L5.44 11.478ZM3.155 12.011L2.179 12.165L1.853 12.97L2.813 12.85L3.155 12.011ZM7.308 12.081L5.712 12.147L5.147 13.503L6.759 13.419L7.308 12.081ZM9.265 12.747L7.376 12.901L6.759 14.427L8.645 14.277L9.265 12.747ZM11.545 12.97L9.52 13.09L8.835 14.755L10.876 14.583L11.545 12.97ZM0.961 13.02L0.223 13.073L0 13.64L0.72 13.62L0.96 13.02H0.961ZM4.666 13.33L3.381 13.4L2.986 14.376L4.273 14.326L4.666 13.33ZM16.589 13.4C17.669 13.69 18.613 14.221 19.403 15.013L17.688 19.196C16.796 18.442 15.868 17.876 14.874 17.532L16.589 13.4ZM6.553 13.915L4.956 14L4.407 15.32L5.985 15.254L6.552 13.916L6.553 13.915ZM2.369 13.929L1.373 14.085L1.064 14.875L2.025 14.769L2.369 13.929ZM8.509 14.599L6.605 14.753L5.988 16.28L7.878 16.126L8.51 14.599H8.509ZM10.74 14.923L8.715 15.046L8.029 16.728L10.055 16.554L10.74 14.923ZM3.877 15.251L2.577 15.319L2.18 16.299L3.465 16.245L3.877 15.251ZM5.748 15.835L4.17 15.903L3.604 17.237L5.199 17.173L5.748 15.835ZM7.701 16.536L5.834 16.673L5.199 18.183L7.069 18.046L7.701 16.536ZM9.931 16.846L7.926 16.968L7.223 18.648L9.263 18.458L9.933 16.848L9.931 16.846Z" fill="white"/>
</svg>
