<svg width="222" height="210" viewBox="0 0 222 210" fill="none" xmlns="http://www.w3.org/2000/svg">
<path d="M115.775 148.124C114.442 148.536 113.065 147.545 113.086 146.146L113.712 104.382C113.724 103.604 114.178 102.9 114.893 102.598C121.773 99.6931 132.408 97.0591 140.248 95.7843C141.452 95.5886 142.518 96.5384 142.5 97.7616L141.856 140.951C141.841 141.949 141.099 142.786 140.114 142.928C132.909 143.965 122.866 145.933 115.775 148.124Z" fill="#285989"/>
<path d="M175.797 100.005C176.516 100.29 176.943 101.007 176.93 101.785L176.195 145.329C176.173 146.682 174.85 147.643 173.548 147.305C165.802 145.297 151.93 143.276 143.876 142.947C142.769 142.901 141.885 141.993 141.901 140.88L142.547 97.5352C142.563 96.4603 143.416 95.5841 144.486 95.5861C153.11 95.6017 168.643 97.1675 175.797 100.005Z" fill="#775E00"/>
<path d="M177.558 55.4899C178.257 55.8085 178.663 56.5273 178.634 57.299L177.128 97.6267C177.076 99.0059 175.682 99.9492 174.362 99.5739C166.668 97.3864 152.846 95.6766 144.703 95.545C143.575 95.5267 142.66 94.6096 142.677 93.4766L143.331 50.0558C143.347 48.9958 144.179 48.1254 145.234 48.1499C153.981 48.3531 170.289 52.1751 177.558 55.4899Z" fill="#4D8D43"/>
<path d="M116.66 101.908C115.314 102.407 113.864 101.413 113.887 99.9744L114.552 57.8228C114.564 57.0319 115.035 56.3195 115.766 56.0205C122.647 53.2058 133.259 50.1174 140.975 48.4826C142.205 48.2219 143.338 49.1815 143.319 50.443L142.67 93.5604C142.654 94.5777 141.883 95.4222 140.879 95.5622C133.595 96.5774 123.697 99.3006 116.66 101.908Z" fill="#9C4423"/>
<path d="M64.502 137.676C64.4821 138.485 63.964 139.194 63.2066 139.475L59.1495 140.979C57.8798 141.449 56.526 140.546 56.5286 139.19C56.5295 138.673 56.5368 138.156 56.5506 137.652C56.572 136.866 57.0718 136.176 57.803 135.889L61.8545 134.297C63.1412 133.791 64.5336 134.715 64.5258 136.099C64.5228 136.624 64.5149 137.152 64.502 137.676Z" fill="#285989"/>
<path d="M79.0318 139.347C79.015 140.164 78.5055 140.889 77.744 141.181L71.8959 143.425C70.5709 143.933 69.1579 142.936 69.1898 141.516L69.2677 138.043C69.2858 137.236 69.7846 136.518 70.5343 136.223C72.4941 135.452 74.4715 134.693 76.4587 133.964C77.7661 133.484 79.132 134.475 79.1033 135.869L79.0318 139.347Z" fill="#285989"/>
<path d="M91.9656 134.029C93.3057 133.516 94.7407 134.542 94.7297 135.979C94.7169 137.65 94.7256 139.337 94.6766 141.007C94.6532 141.806 94.1411 142.504 93.3946 142.786L86.2274 145.485C84.9073 145.983 83.5064 144.992 83.5328 143.579L83.6263 138.565C83.6415 137.747 84.1523 137.018 84.9159 136.726L91.9656 134.029Z" fill="#285989"/>
<path d="M50.8716 133.648C50.8492 134.46 50.3399 135.18 49.5823 135.469L47.7381 136.175C46.4581 136.665 45.0827 135.748 45.103 134.376C45.1062 134.16 45.1107 133.944 45.1164 133.729C45.1373 132.948 45.6309 132.263 46.3505 131.962C46.994 131.693 47.636 131.42 48.2804 131.154C49.5699 130.621 50.9279 131.606 50.8894 133.002L50.8716 133.648Z" fill="#285989"/>
<path d="M37.3645 129.353C37.3514 130.098 36.8997 130.765 36.2216 131.072C36.0032 131.171 35.7848 131.27 35.5663 131.37C34.3366 131.929 33.0193 131.005 33.0495 129.653C33.0662 128.908 33.5088 128.237 34.1884 127.932C34.4069 127.835 34.6257 127.737 34.8447 127.641C36.0622 127.103 37.3881 128.021 37.3645 129.353Z" fill="#285989"/>
<path d="M64.7161 122.706C64.6972 123.525 64.1824 124.252 63.4164 124.54L59.5145 126.008C58.2054 126.5 56.8128 125.529 56.8196 124.129L56.8255 122.885C56.8296 122.04 57.3629 121.289 58.1505 120.987C59.4834 120.475 60.8011 119.926 62.124 119.4C63.4192 118.885 64.7812 119.87 64.7492 121.265L64.7161 122.706Z" fill="#285989"/>
<path d="M79.3073 124.728C79.2893 125.542 78.7816 126.266 78.0229 126.558L72.2181 128.797C70.9027 129.304 69.4944 128.326 69.5082 126.914L69.5414 123.509C69.5494 122.693 70.0503 121.962 70.8078 121.662C72.7736 120.882 74.7411 120.107 76.7184 119.357C78.0308 118.86 79.4148 119.853 79.3838 121.258L79.3073 124.728Z" fill="#285989"/>
<path d="M94.924 125.903C94.9153 126.739 94.3895 127.483 93.6053 127.769L86.4151 130.394C85.0968 130.875 83.711 129.883 83.7397 128.478L83.8394 123.587C83.8562 122.767 84.3697 122.039 85.1355 121.749L92.2782 119.044C93.5922 118.547 94.991 119.526 94.9762 120.933L94.924 125.903Z" fill="#285989"/>
<path d="M51.2035 118.186C51.1763 118.986 50.6483 119.676 49.9051 119.971C49.2553 120.229 48.6061 120.501 47.954 120.767C46.6865 121.283 45.3681 120.324 45.3908 118.953L45.4046 118.127C45.4184 117.292 45.9473 116.552 46.7317 116.269L48.6745 115.57C49.9211 115.121 51.2401 115.99 51.2237 117.317C51.2201 117.607 51.2133 117.897 51.2035 118.186Z" fill="#285989"/>
<path d="M37.6351 113.921C37.6232 114.674 37.1657 115.349 36.4717 115.637L35.8555 115.893C34.6196 116.407 33.2643 115.496 33.2715 114.156C33.2753 113.447 33.6753 112.796 34.3206 112.505C34.574 112.391 34.8309 112.278 35.0899 112.168C36.3177 111.646 37.6562 112.586 37.6351 113.921Z" fill="#285989"/>
<path d="M65.2477 91.9923C65.2301 92.8091 64.7193 93.5345 63.9571 93.8255L60.0534 95.3158C58.7428 95.8162 57.3425 94.8449 57.3494 93.4403L57.3561 92.0811C57.3602 91.2465 57.8805 90.5013 58.6591 90.2037C59.9769 89.7001 61.2907 89.1839 62.6111 88.6756C63.9224 88.1708 65.3088 89.1613 65.2784 90.5679L65.2477 91.9923Z" fill="#9C4423"/>
<path d="M72.8009 98.0928C71.4874 98.6055 70.0752 97.6326 70.0835 96.2209L70.1038 92.7539C70.1087 91.9308 70.6154 91.193 71.3812 90.8941L77.179 88.6313C78.4925 88.1187 79.9047 89.0915 79.8964 90.5032L79.8761 93.9702C79.8713 94.7933 79.3645 95.5311 78.5987 95.83L72.8009 98.0928Z" fill="#9C4423"/>
<path d="M95.4342 94.709C95.4262 95.5343 94.9141 96.2716 94.1442 96.5662L87.0016 99.2988C85.6842 99.8028 84.2782 98.8194 84.2971 97.4071L84.3636 92.4372C84.3746 91.617 84.8832 90.885 85.6473 90.5898L92.7719 87.8369C94.0874 87.3286 95.4963 88.3069 95.4826 89.7189L95.4342 94.709Z" fill="#9C4423"/>
<path d="M51.6756 87.3634C51.6796 88.1575 51.2164 88.8833 50.482 89.1827C49.9017 89.4194 49.311 89.647 48.7181 89.8732C47.3969 90.3773 45.9542 89.4072 45.9406 87.9912L45.9342 87.3274C45.9268 86.5521 46.3643 85.835 47.0823 85.5448C47.661 85.3109 48.255 85.097 48.851 84.8864C50.1955 84.4113 51.6658 85.4119 51.673 86.8399L51.6756 87.3634Z" fill="#9C4423"/>
<path d="M38.0997 83.0713C38.0956 83.8141 37.6488 84.4837 36.9725 84.789C36.7536 84.8878 36.5349 84.9873 36.3158 85.0865C35.0809 85.6453 33.7688 84.7095 33.8055 83.3527C33.8258 82.6022 34.2749 81.9289 34.9595 81.6228L35.508 81.3776C36.7317 80.8303 38.1071 81.7291 38.0997 83.0713Z" fill="#9C4423"/>
<path d="M65.5007 76.6936C65.488 77.5095 64.983 78.2381 64.2222 78.5305C62.8903 79.0423 61.554 79.5426 60.2115 80.0271C58.9124 80.4958 57.5623 79.5137 57.5831 78.1309L57.6036 76.7657C57.616 75.9386 58.1348 75.204 58.9049 74.9048C60.2327 74.3889 61.5521 73.8515 62.8783 73.3314C64.1758 72.8225 65.546 73.8007 65.5242 75.196L65.5007 76.6936Z" fill="#9C4423"/>
<path d="M80.0993 78.7127C80.0831 79.5253 79.5784 80.2487 78.8232 80.5464C76.8577 81.3212 74.8903 82.1092 72.9079 82.8634C71.6021 83.3602 70.2283 82.3715 70.2563 80.9727L70.3273 77.4217C70.3434 76.6177 70.8374 75.8991 71.5841 75.6033C73.5379 74.8294 75.4977 74.0858 77.4602 73.3409C78.785 72.838 80.197 73.8331 80.1686 75.2517L80.0993 78.7127Z" fill="#9C4423"/>
<path d="M95.6694 80.0499C95.6544 80.8715 95.1405 81.602 94.3731 81.8925L87.2756 84.5798C85.9606 85.0777 84.5612 84.0969 84.5777 82.6889L84.6364 77.6715C84.6461 76.8477 85.1579 76.1123 85.9264 75.8183L93.0573 73.09C94.3786 72.5845 95.7874 73.5751 95.7616 74.9915L95.6694 80.0499Z" fill="#9C4423"/>
<path d="M51.9196 72.0421C51.9047 72.8561 51.3999 73.5815 50.6426 73.8772L48.8802 74.5654C47.5673 75.0781 46.1555 74.1063 46.163 72.6949L46.1662 72.0878C46.1707 71.2284 46.7225 70.4681 47.5265 70.1678C48.1415 69.9381 48.75 69.6995 49.3591 69.4641C50.6372 68.97 51.9581 69.9364 51.933 71.3084L51.9196 72.0421Z" fill="#9C4423"/>
<path d="M38.3917 67.7551C38.3872 68.4687 37.964 69.1141 37.3119 69.4018L36.6873 69.6774C35.4438 70.2262 34.0529 69.3114 34.0616 67.9505C34.066 67.2571 34.4486 66.6162 35.0795 66.3306C35.3159 66.2235 35.5541 66.1204 35.7932 66.0194C37.0112 65.5048 38.4001 66.4311 38.3917 67.7551Z" fill="#9C4423"/>
<path d="M64.6842 153.154C64.6635 153.953 64.171 154.665 63.4293 154.96C61.6229 155.68 59.8029 156.382 57.9717 157.06C56.6664 157.544 55.2967 156.559 55.3181 155.166L55.3512 153.002C55.3637 152.186 55.8689 151.458 56.6304 151.167C58.4072 150.488 60.1982 149.827 61.9872 149.143C63.3298 148.63 64.7752 149.638 64.738 151.076L64.6842 153.154Z" fill="black"/>
<path d="M112.706 63.8476C112.694 64.6589 112.194 65.3841 111.442 65.6843L101.509 69.6456C100.187 70.1727 98.7597 69.1879 98.7797 67.7631L98.9197 57.8188C98.93 57.0823 99.3424 56.4092 99.9942 56.0677C103.351 54.309 106.741 52.5808 110.241 51.1503C111.528 50.6239 112.895 51.6042 112.874 52.9972L112.706 63.8476Z" fill="black"/>
<path d="M39.1067 52.8709C39.093 53.6701 38.6067 54.3861 37.8695 54.6923L36.5896 55.2241C35.2715 55.7717 33.826 54.8002 33.8326 53.371L33.8335 53.1669C33.8372 52.3587 34.3251 51.6305 35.0686 51.3161C35.5165 51.1268 35.9641 50.9367 36.4121 50.7478C37.7204 50.1962 39.1358 51.1763 39.1114 52.5977L39.1067 52.8709Z" fill="black"/>
<path d="M52.6951 56.5595C52.6755 57.393 52.1425 58.1277 51.3609 58.4144C50.3029 58.8025 49.2485 59.2021 48.1891 59.5955C46.8884 60.0785 45.5328 59.0948 45.5598 57.7057L45.5801 56.6585C45.5963 55.8221 46.1301 55.084 46.9112 54.7875C47.9956 54.3757 49.0715 53.9418 50.1554 53.5286C51.4361 53.0404 52.7549 54.0211 52.7226 55.3931L52.6951 56.5595Z" fill="black"/>
<path d="M96.8166 65.0228C96.8035 65.8416 96.2945 66.5715 95.5314 66.8656L86.291 70.4275C84.9739 70.9352 83.5647 69.9535 83.5819 68.5401L83.6644 61.7389C83.6744 60.9141 84.1877 60.1783 84.9576 59.8853L94.2233 56.3593C95.5422 55.8574 96.9469 56.8445 96.9244 58.2574L96.8166 65.0228Z" fill="black"/>
<path d="M72.1255 68.2015C70.812 68.7039 69.4087 67.7278 69.4203 66.3198L69.454 62.2176C69.4608 61.395 69.9687 60.6589 70.7346 60.3616L78.3903 57.39C79.7085 56.8783 81.122 57.8607 81.1046 59.2763L81.0535 63.4283C81.0434 64.2514 80.5317 64.9859 79.7638 65.2796L72.1255 68.2015Z" fill="black"/>
<path d="M66.2539 61.3511C66.2432 62.1749 65.7303 62.9094 64.9613 63.2021L59.5692 65.2547C58.2557 65.7546 56.8545 64.7778 56.8668 63.3707L56.8847 61.3264C56.8919 60.5055 57.3985 59.7714 58.1602 59.4675C59.9835 58.7399 61.8044 57.9866 63.6492 57.276C64.942 56.7781 66.3005 57.7543 66.2825 59.1412L66.2539 61.3511Z" fill="black"/>
<path d="M112.468 78.6599C112.456 79.4586 111.973 80.1755 111.236 80.4827C107.931 81.8622 104.609 83.2252 101.275 84.5614C99.9547 85.0905 98.5301 84.103 98.553 82.679L98.6938 73.9325C98.7069 73.1198 99.2084 72.3941 99.9632 72.0957L109.873 68.1777C111.195 67.6551 112.619 68.6414 112.597 70.0645L112.468 78.6599Z" fill="black"/>
<path d="M112.181 93.7281C112.169 94.5352 111.676 95.258 110.929 95.5615L98.2668 100.708C98.2549 100.713 98.242 100.715 98.2292 100.713C98.1887 100.709 98.1581 100.675 98.1586 100.634L98.3123 88.9777C98.323 88.1707 98.8156 87.4474 99.5618 87.143L109.562 83.0641C110.886 82.524 112.327 83.5096 112.306 84.9414L112.181 93.7281Z" fill="black"/>
<path d="M35.8177 100.899C34.4988 101.436 33.0628 100.46 33.0741 99.0342L33.0757 98.8312C33.082 98.0353 33.5577 97.3172 34.2876 97.002L35.5963 96.4369C36.9191 95.8656 38.388 96.84 38.3788 98.2826L38.3773 98.5179C38.3721 99.3303 37.878 100.061 37.1265 100.366L35.8177 100.899Z" fill="black"/>
<path d="M100.737 114.518C99.4149 115.051 97.9813 114.068 97.9997 112.64L98.1118 103.959C98.1222 103.15 98.6171 102.425 99.3661 102.121L109.3 98.0996C110.62 97.5654 112.054 98.5437 112.04 99.9692L111.958 108.655C111.951 109.467 111.454 110.196 110.701 110.5L100.737 114.518Z" fill="black"/>
<path d="M51.8891 102.724C51.8691 103.543 51.3534 104.268 50.5872 104.556L47.4689 105.724C46.1486 106.219 44.7494 105.227 44.7768 103.816L44.7955 102.851C44.8117 102.014 45.3455 101.276 46.1266 100.98C47.2052 100.57 48.2729 100.14 49.3495 99.7291C50.6308 99.2406 51.9502 100.223 51.9167 101.595L51.8891 102.724Z" fill="black"/>
<path d="M96.0013 110.986C95.989 111.808 95.4774 112.54 94.7107 112.833L85.4529 116.371C84.1377 116.874 82.7339 115.894 82.7491 114.484L82.8217 107.744C82.8306 106.918 83.3441 106.181 84.115 105.888L93.4004 102.354C94.7185 101.853 96.1225 102.838 96.1015 104.25L96.0013 110.986Z" fill="black"/>
<path d="M80.2757 109.531C80.2631 110.35 79.7548 111.08 78.9921 111.374L68.7024 115.348C68.6913 115.352 68.6795 115.354 68.6676 115.354C68.6168 115.353 68.5763 115.311 68.5772 115.26L68.7036 108.299C68.7184 107.484 69.2248 106.758 69.984 106.463L77.6251 103.497C78.9457 102.985 80.3611 103.972 80.3393 105.39L80.2757 109.531Z" fill="black"/>
<path d="M65.4836 107.551C65.4624 108.367 64.9497 109.089 64.1876 109.378L58.7804 111.423C57.47 111.919 56.0737 110.946 56.0818 109.544L56.0937 107.478C56.0984 106.663 56.5942 105.931 57.3497 105.63C59.1776 104.901 61.0176 104.19 62.8605 103.494C64.1808 102.996 65.5758 103.997 65.5391 105.409L65.4836 107.551Z" fill="black"/>
<path d="M111.685 125.193C111.681 125.288 111.622 125.372 111.535 125.407L100.508 129.872C99.1884 130.406 97.7547 129.428 97.7682 128.002L97.8535 118.986C97.8612 118.173 98.3579 117.444 99.1106 117.141L109.105 113.111C110.429 112.577 111.864 113.564 111.842 114.993L111.685 125.193Z" fill="black"/>
<path d="M111.432 139.008C111.422 139.809 110.938 140.528 110.2 140.837L97.5221 146.15C97.5105 146.155 97.498 146.157 97.4854 146.157C97.4351 146.156 97.3952 146.115 97.3961 146.064L97.6162 134.222C97.6312 133.415 98.1276 132.695 98.8755 132.394L108.805 128.406C110.126 127.875 111.557 128.858 111.539 130.283L111.432 139.008Z" fill="black"/>
<path d="M37.5793 144.666C37.553 145.493 37.0207 146.218 36.2547 146.529C35.7769 146.722 35.3021 146.924 34.8263 147.123C33.5645 147.65 32.2543 146.695 32.2816 145.326L32.2887 144.966C32.3037 144.214 32.7363 143.529 33.4224 143.223C33.8678 143.024 34.3164 142.834 34.7668 142.646C36.1221 142.08 37.6287 143.119 37.5818 144.588L37.5793 144.666Z" fill="black"/>
<path d="M111.15 155.044C111.135 155.876 110.608 156.613 109.828 156.9C106.552 158.102 103.303 159.354 100.106 160.777C98.7475 161.382 97.1959 160.391 97.2174 158.902L97.354 149.409C97.3656 148.605 97.8556 147.884 98.5984 147.578L108.573 143.477C109.901 142.931 111.348 143.922 111.323 145.359L111.15 155.044Z" fill="black"/>
<path d="M51.1375 148.903C51.1251 149.715 50.6245 150.441 49.8703 150.74L46.7111 151.992C45.3984 152.513 43.9794 151.544 43.9834 150.13L43.9861 149.207C43.9884 148.381 44.4959 147.641 45.2613 147.335C46.3427 146.903 47.416 146.464 48.4956 146.036C49.7952 145.521 51.174 146.499 51.1527 147.899L51.1375 148.903Z" fill="black"/>
<path d="M95.21 156.71C95.198 157.537 94.6798 158.274 93.9059 158.563L84.6857 162.011C83.368 162.503 81.9722 161.516 81.9956 160.107L82.1077 153.352C82.1213 152.53 82.6353 151.798 83.4036 151.506L92.6104 148.018C93.9277 147.519 95.3291 148.504 95.3087 149.915L95.21 156.71Z" fill="black"/>
<path d="M70.601 159.936C69.2838 160.438 67.8798 159.454 67.899 158.043L67.9561 153.846C67.9673 153.024 68.4787 152.29 69.2457 151.997L76.8533 149.086C78.1704 148.582 79.5764 149.565 79.5585 150.977L79.5049 155.187C79.4944 156.011 78.9814 156.746 78.2122 157.039L70.601 159.936Z" fill="black"/>
<path fill-rule="evenodd" clip-rule="evenodd" d="M172.16 60.9811C165.122 57.3066 156.808 55.9998 148.336 56.4454L147.82 90.2315C156.375 90.0601 164.452 91.2627 171.649 94.04L172.16 60.9811ZM171.57 105.032C164.597 101.639 156.089 100.627 147.654 100.884L147.191 135.374C155.581 135.399 163.72 136.138 171.035 138.54L171.57 105.032ZM185.794 51.7228L184.166 159.067C169.391 149.62 149.35 147.861 131.231 151.323C125.002 152.537 118.858 154.025 112.952 156.078L113.195 142.101C120.728 139.388 128.537 137.334 136.709 136.281L137.221 101.574C128.866 102.721 121.155 105.483 113.713 108.886L113.838 97.503C121.307 94.3974 129.038 91.9134 137.385 91.0329L137.905 57.597C129.709 59.099 121.88 61.5551 114.398 64.7979L114.582 49.702C131.851 42.8394 153.735 39.8333 172.353 45.7957C177.048 47.2486 181.575 49.1171 185.794 51.7228Z" fill="black"/>
</svg>