<svg width="512" height="121" viewBox="0 0 512 121" fill="none" xmlns="http://www.w3.org/2000/svg">
<path d="M160.579 82.6264V78.1779H183.385V82.6264H160.579ZM156 78.1779V69.2527H160.579V78.1779H156ZM183.385 78.1779V64.7759H187.963V78.1779H183.385ZM174.256 64.7759V60.3274H183.385V64.7759H174.256ZM160.579 60.3274V55.8506H174.256V60.3274H160.579ZM156 55.8506V42.4769H160.579V55.8506H156ZM183.385 51.4022V42.4769H187.963V51.4022H183.385ZM160.579 42.4769V38.0001H183.385V42.4769H160.579Z" fill="black"/>
<path d="M206.22 82.6264V78.1779H210.798V82.6264H206.22ZM201.67 78.1779V55.8506H197.091V51.4022H201.67V42.4769H206.22V51.4022H210.798V55.8506H206.22V78.1779H201.67Z" fill="black"/>
<path d="M219.926 82.6264V78.1779H238.183V82.6264H219.926ZM242.732 82.6264V78.1779H247.311V82.6264H242.732ZM215.348 78.1779V64.7759H219.926V78.1779H215.348ZM215.348 60.3274V55.8506H219.926V60.3274H215.348ZM238.183 78.1779V64.7759H219.926V60.3274H238.183V55.8506H242.732V78.1779H238.183ZM219.926 55.8506V51.4022H238.183V55.8506H219.926Z" fill="black"/>
<path d="M251.861 82.6264V51.4022H256.439V55.8506H260.989V60.3274H256.439V82.6264H251.861ZM260.989 55.8506V51.4022H265.567V55.8506H260.989Z" fill="black"/>
<path d="M270.117 82.6264V51.4022H274.696V82.6264H270.117ZM270.117 42.4769V38.0001H274.696V42.4769H270.117Z" fill="black"/>
<path d="M279.245 82.6264V78.1779H283.795V82.6264H279.245ZM302.051 82.6264V78.1779H306.63V82.6264H302.051ZM283.795 78.1779V73.7011H288.373V78.1779H283.795ZM297.502 78.1779V73.7011H302.051V78.1779H297.502ZM288.373 73.7011V60.3274H297.502V73.7011H288.373ZM283.795 60.3274V55.8506H288.373V60.3274H283.795ZM297.502 60.3274V55.8506H302.051V60.3274H297.502ZM279.245 55.8506V51.4022H283.795V55.8506H279.245ZM302.051 55.8506V51.4022H306.63V55.8506H302.051Z" fill="black"/>
<path d="M352.271 60.3274V55.8506H356.849V60.3274H352.271ZM356.849 55.8506V46.9254H361.399V55.8506H356.849ZM352.271 46.9254V42.4769H356.849V46.9254H352.271ZM324.886 82.6264V38.0001H352.271V42.4769H329.465V60.3274H352.271V64.7759H329.465V82.6264H324.886Z" fill="black"/>
<path d="M365.978 82.6264V51.4022H370.556V55.8506H375.106V60.3274H370.556V82.6264H365.978ZM375.106 55.8506V51.4022H379.684V55.8506H375.106Z" fill="black"/>
<path d="M388.813 82.6264V78.1779H407.069V82.6264H388.813ZM384.234 78.1779V55.8506H388.813V78.1779H384.234ZM407.069 78.1779V55.8506H411.619V78.1779H407.069ZM388.813 55.8506V51.4022H407.069V55.8506H388.813Z" fill="black"/>
<path d="M415.872 82V78.1779H420.421V82H415.872ZM420.421 78.1779V47.4021H425V78.1779H420.421ZM420.421 44.5V39.5H425V44.5H420.421Z" fill="black"/>
<path d="M439.003 82.6264V78.1779H457.26V82.6264H439.003ZM457.26 78.1779V73.7011H461.809V78.1779H457.26ZM434.425 78.1779V55.8506H439.003V64.7759H457.26V55.8506H461.809V69.2527H439.003V78.1779H434.425ZM439.003 55.8506V51.4022H457.26V55.8506H439.003Z" fill="black"/>
<path d="M470.938 82.6264V78.1779H489.194V82.6264H470.938ZM489.194 78.1779V73.7011H493.744V78.1779H489.194ZM466.359 78.1779V55.8506H470.938V78.1779H466.359ZM489.194 60.3274V55.8506H493.744V60.3274H489.194ZM470.938 55.8506V51.4022H489.194V55.8506H470.938Z" fill="black"/>
<path d="M507.421 82.6264V78.1779H512V82.6264H507.421ZM502.872 78.1779V55.8506H498.293V51.4022H502.872V42.4769H507.421V51.4022H512V55.8506H507.421V78.1779H502.872Z" fill="black"/>
<g clip-path="url(#clip0_21_59)">
<path d="M73.5364 94.1972C72.1996 94.5963 70.8219 93.6021 70.8432 92.2034L71.3264 60.4504C71.3383 59.6731 71.7947 58.967 72.5115 58.67C77.7482 56.5002 85.6 54.5366 91.5757 53.5267C92.7779 53.3236 93.8435 54.2731 93.825 55.4965L93.3274 88.3858C93.3123 89.3841 92.5696 90.221 91.5854 90.366C86.1888 91.1614 78.9096 92.593 73.5364 94.1972Z" fill="#285989"/>
<path d="M119.594 56.6423C120.317 56.9156 120.75 57.6354 120.736 58.4131L120.169 91.5934C120.146 92.9465 118.819 93.9121 117.513 93.5892C111.513 92.1054 101.488 90.6507 95.3386 90.3516C94.232 90.2978 93.3433 89.3885 93.3601 88.275L93.86 55.2378C93.8763 54.1627 94.7307 53.2864 95.8006 53.2956C102.508 53.3532 114.012 54.533 119.594 56.6423Z" fill="#775E00"/>
<path d="M120.976 21.8126C121.678 22.1229 122.091 22.8454 122.062 23.6172L120.91 54.2647C120.859 55.6443 119.459 56.5946 118.133 56.2407C112.172 54.6497 102.201 53.4175 95.9973 53.2676C94.8699 53.2404 93.9497 52.3226 93.967 51.1893L94.4728 18.0957C94.4891 17.0354 95.3209 16.1657 96.3751 16.2055C103.197 16.4632 115.292 19.2999 120.976 21.8126Z" fill="#4D8D43"/>
<path d="M74.2478 58.0065C72.8979 58.4943 71.447 57.4979 71.47 56.0594L71.9823 24.0423C71.995 23.2512 72.4681 22.5371 73.2003 22.2416C78.4291 20.1307 86.2433 17.8438 92.1246 16.5605C93.3536 16.2923 94.4842 17.2514 94.4649 18.5132L93.9634 51.3113C93.9478 52.3288 93.1767 53.1736 92.1736 53.3217C86.7343 54.1252 79.5723 56.0826 74.2478 58.0065Z" fill="#9C4423"/>
<path d="M32.8756 85.9159C32.8592 86.7248 32.3405 87.4346 31.5832 87.7157L29.2452 88.5832C27.9757 89.0543 26.6225 88.151 26.6419 86.7948C26.6435 86.6869 26.6454 86.5793 26.6477 86.4722C26.6644 85.6856 27.1648 84.996 27.8959 84.7084L30.2246 83.7924C31.511 83.2864 32.9025 84.2095 32.8813 85.5938C32.8797 85.7013 32.8778 85.8087 32.8756 85.9159Z" fill="#285989"/>
<path d="M44.2307 87.219C44.2137 88.0357 43.704 88.7618 42.9427 89.0542L39.2517 90.4717C37.9269 90.9804 36.5145 89.9836 36.5467 88.5625L36.587 86.7867C36.6053 85.98 37.104 85.2608 37.854 84.9664C39.1036 84.4758 40.3622 83.9921 41.6263 83.5224C42.9319 83.0374 44.297 84.0276 44.268 85.4224L44.2307 87.219Z" fill="#285989"/>
<path d="M53.7164 83.5925C55.0563 83.0793 56.4967 84.1054 56.4896 85.5425C56.4848 86.5359 56.4836 87.5338 56.4591 88.5251C56.4393 89.324 55.927 90.0229 55.1806 90.3044L50.4468 92.0895C49.127 92.5872 47.7267 91.5965 47.7533 90.1838L47.8097 87.201C47.8251 86.3821 48.3359 85.6535 49.0995 85.361L53.7164 83.5925Z" fill="#285989"/>
<path d="M22.2209 82.8969C22.2006 83.6289 21.7415 84.2775 21.0588 84.539L20.091 84.9096C18.9315 85.3537 17.6857 84.5265 17.7144 83.2833C17.7307 82.5758 18.1783 81.9518 18.8299 81.6783C19.178 81.5323 19.5257 81.385 19.874 81.2395C21.0342 80.7546 22.2559 81.638 22.2209 82.8969Z" fill="#285989"/>
<path d="M11.6602 79.6979C11.6498 80.2805 11.2966 80.8026 10.7665 81.0425C10.5958 81.1197 10.4252 81.1976 10.2545 81.2754C9.29321 81.713 8.26377 80.9911 8.28769 79.9337C8.30087 79.3509 8.64695 78.8259 9.17813 78.5879C9.34895 78.5114 9.5199 78.4352 9.69107 78.3596C10.6428 77.9393 11.6789 78.6562 11.6602 79.6979Z" fill="#285989"/>
<path d="M33.0431 74.2028C33.0241 75.0222 32.5092 75.749 31.7433 76.0374L29.5614 76.859C28.2526 77.3519 26.8607 76.3593 26.8677 74.9586C26.872 74.1136 27.4054 73.3518 28.1915 73.0453C28.9405 72.7532 29.6841 72.4484 30.4282 72.1483C31.7209 71.627 33.0802 72.6053 33.0478 74.0008L33.0431 74.2028Z" fill="#285989"/>
<path d="M44.4462 75.7866C44.4281 76.6008 43.9203 77.3246 43.1617 77.6175L39.496 79.0328C38.1807 79.5406 36.773 78.5624 36.7871 77.1505L36.8044 75.4238C36.8125 74.6076 37.3135 73.8761 38.0711 73.5757C39.3196 73.0805 40.5693 72.5883 41.8235 72.1077C43.1342 71.6055 44.5173 72.5981 44.486 74.0035L44.4462 75.7866Z" fill="#285989"/>
<path d="M56.648 76.6956C56.639 77.5318 56.1131 78.2762 55.329 78.5628L50.5903 80.2946C49.2723 80.7763 47.8871 79.7837 47.9161 78.3783L47.9757 75.4868C47.9927 74.6667 48.5063 73.9381 49.272 73.6478L53.9826 71.8622C55.2965 71.3642 56.6947 72.3431 56.6796 73.7503L56.648 76.6956Z" fill="#285989"/>
<path d="M22.483 70.7257C22.4627 71.4889 21.9578 72.1595 21.2508 72.4443C20.9455 72.5672 20.6403 72.6933 20.3345 72.8192C19.1492 73.3071 17.9183 72.4173 17.9399 71.1337C17.9531 70.3517 18.4484 69.6583 19.1828 69.3936L20.0738 69.0725C21.2621 68.6442 22.5168 69.4609 22.483 70.7257Z" fill="#285989"/>
<path d="M11.8716 67.6289C11.8622 68.2174 11.5045 68.745 10.962 68.9708L10.4805 69.1712C9.51442 69.5733 8.4553 68.8608 8.46118 67.8129C8.46428 67.2587 8.77703 66.7495 9.28146 66.5218C9.47953 66.4324 9.68027 66.3448 9.88273 66.2586C10.8425 65.8499 11.8884 66.5843 11.8716 67.6289Z" fill="#285989"/>
<path d="M33.4583 50.1829C33.4405 50.9998 32.9297 51.7256 32.1676 52.0169L29.9849 52.851C28.6744 53.3518 27.2747 52.3807 27.282 50.9758L27.2826 50.8518C27.2869 50.017 27.8073 49.2714 28.5853 48.9723C29.323 48.6888 30.0596 48.401 30.7979 48.1147C32.108 47.6068 33.493 48.5948 33.4623 50.0017L33.4583 50.1829Z" fill="#9C4423"/>
<path d="M39.9507 55.0162C38.6374 55.5293 37.2258 54.5566 37.2344 53.1445L37.2453 51.3729C37.2503 50.5496 37.7571 49.8115 38.5228 49.5124L42.1808 48.0832C43.494 47.5701 44.9057 48.5428 44.897 49.9548L44.8862 51.7264C44.8812 52.5498 44.3744 53.2879 43.6087 53.587L39.9507 55.0162Z" fill="#9C4423"/>
<path d="M57.0465 52.303C57.0383 53.1285 56.5261 53.8662 55.7563 54.161L51.0508 55.9632C49.7336 56.4676 48.3282 55.4843 48.3474 54.0717L48.3876 51.1241C48.3987 50.3037 48.9075 49.5713 49.6715 49.2758L54.3663 47.4599C55.6816 46.9512 57.09 47.9292 57.0759 49.3416L57.0465 52.303Z" fill="#9C4423"/>
<path d="M22.8443 46.7333C22.8476 47.4297 22.4414 48.0663 21.7967 48.327C21.4911 48.4507 21.182 48.5713 20.8715 48.6908C19.6776 49.1503 18.371 48.2677 18.3591 46.9865C18.3525 46.285 18.7485 45.636 19.4 45.3784C19.719 45.2523 20.0433 45.1331 20.3694 45.0165C21.5467 44.5954 22.8382 45.4809 22.8443 46.7333Z" fill="#9C4423"/>
<path d="M12.2348 43.5007C12.2315 44.0816 11.8821 44.6053 11.3535 44.8441C11.1824 44.9214 11.0115 44.9993 10.8403 45.0768C9.87494 45.5141 8.84963 44.7826 8.87858 43.7217C8.89459 43.1347 9.24574 42.6082 9.78085 42.3686L10.2095 42.1768C11.1661 41.7486 12.2408 42.4512 12.2348 43.5007Z" fill="#9C4423"/>
<path d="M33.6544 38.2181C33.6414 39.0342 33.1364 39.7634 32.3753 40.0548C31.6176 40.345 30.858 40.6302 30.096 40.9092C28.799 41.384 27.4497 40.4025 27.4708 39.0194L27.473 38.8703C27.4857 38.043 28.0046 37.308 28.7738 37.0065C29.5229 36.7129 30.2691 36.4118 31.0169 36.1149C32.3122 35.6006 33.6805 36.5747 33.6583 37.9703L33.6544 38.2181Z" fill="#9C4423"/>
<path d="M45.0647 39.7981C45.0483 40.611 44.5436 41.3347 43.7886 41.6331C42.5377 42.1275 41.2855 42.6273 40.0263 43.1127C38.7226 43.6153 37.3499 42.6283 37.3783 41.2292L37.4158 39.3734C37.4321 38.5691 37.9261 37.8501 38.6732 37.5553C39.9106 37.067 41.151 36.5933 42.393 36.1211C43.7174 35.6175 45.1292 36.6133 45.1005 38.0322L45.0647 39.7981Z" fill="#9C4423"/>
<path d="M57.2326 40.8398C57.2175 41.6615 56.7035 42.3923 55.9362 42.6832L51.2623 44.4547C49.9474 44.953 48.5486 43.9724 48.5654 42.5641L48.6011 39.5774C48.6109 38.7533 49.1229 38.0177 49.8912 37.7234L54.5851 35.9256C55.9061 35.4196 57.3144 36.4101 57.2882 37.8268L57.2326 40.8398Z" fill="#9C4423"/>
<path d="M23.0389 34.6882C23.025 35.4375 22.5604 36.1053 21.8636 36.3777L20.9559 36.7325C19.7873 37.1893 18.531 36.3243 18.5379 35.0676C18.5421 34.3023 19.0334 33.6248 19.7482 33.3551C20.0582 33.2381 20.3663 33.1186 20.6741 32.9991C21.8496 32.5428 23.0623 33.4253 23.0389 34.6882Z" fill="#9C4423"/>
<path d="M12.463 31.5219C12.4593 32.0799 12.1284 32.5847 11.6187 32.8098L11.1306 33.0254C10.1586 33.4548 9.07163 32.7398 9.07865 31.6756C9.08223 31.1334 9.38138 30.6321 9.87461 30.4086C10.0593 30.3249 10.2455 30.2442 10.4323 30.1652C11.3844 29.7626 12.4698 30.4866 12.463 31.5219Z" fill="#9C4423"/>
<path d="M33.0189 98.0249C32.998 98.8242 32.5055 99.5369 31.7635 99.8317C30.6325 100.281 29.4948 100.721 28.3514 101.15C27.048 101.638 25.679 100.654 25.7007 99.2604L25.7126 98.4908C25.7253 97.6744 26.2306 96.9454 26.9924 96.6552C28.0855 96.2389 29.1849 95.8301 30.2844 95.4131C31.6283 94.9034 33.074 95.9131 33.0365 97.3521L33.0189 98.0249Z" fill="black"/>
<path d="M70.5464 28.1718C70.5337 28.9833 70.0344 29.7088 69.2819 30.0092L62.394 32.7591C61.0726 33.2866 59.6455 32.302 59.6659 30.8769L59.7641 24.0137C59.7746 23.277 60.1869 22.6035 60.8389 22.2622C63.2025 21.0251 65.5881 19.8123 68.0397 18.7762C69.3212 18.2346 70.6868 19.2128 70.665 20.6061L70.5464 28.1718Z" fill="black"/>
<path d="M13.023 19.8151C13.0114 20.4798 12.6069 21.0754 11.994 21.3303L11.156 21.6788C10.0772 22.1275 8.89449 21.3323 8.90015 20.1622C8.90335 19.5005 9.30277 18.9042 9.91128 18.6465C10.2008 18.5239 10.4903 18.401 10.7799 18.2786C11.8673 17.8189 13.0435 18.6328 13.023 19.8151Z" fill="black"/>
<path d="M23.6488 22.4634C23.6289 23.2969 23.096 24.0319 22.3153 24.3205C21.7548 24.5278 21.1953 24.7384 20.6346 24.9481C19.3683 25.4218 18.0489 24.4664 18.0755 23.1125C18.0915 22.2972 18.6116 21.5774 19.3716 21.2854C19.9452 21.065 20.5162 20.8381 21.0888 20.6153C22.3658 20.1183 23.6814 21.0914 23.6488 22.4634Z" fill="black"/>
<path d="M58.1285 29.0878C58.1152 29.9069 57.6062 30.637 56.8432 30.9315L50.4953 33.3809C49.1783 33.8891 47.7698 32.9075 47.7873 31.4938L47.8414 27.117C47.8516 26.292 48.365 25.5559 49.1348 25.2627L55.4989 22.8383C56.8177 22.3359 58.2217 23.3229 58.1989 24.7361L58.1285 29.0878Z" fill="black"/>
<path d="M39.4215 31.6433C38.1082 32.1462 36.7055 31.1702 36.7174 29.7619L36.7366 27.4905C36.7436 26.6677 37.2516 25.9312 38.0174 25.6337L43.124 23.6495C44.442 23.1374 45.8549 24.1195 45.8371 25.5355L45.8082 27.8394C45.7979 28.6628 45.2862 29.3975 44.5184 29.6916L39.4215 31.6433Z" fill="black"/>
<path d="M34.2421 26.2147C34.2312 27.0387 33.7182 27.7736 32.9493 28.0666L29.6083 29.3396C28.295 29.8401 26.8944 28.8634 26.907 27.4559L26.913 26.7923C26.9204 25.9712 27.427 25.2367 28.1882 24.9314C29.3304 24.4732 30.4723 24.0043 31.6243 23.5522C32.914 23.0462 34.271 24.0196 34.2527 25.4068L34.2421 26.2147Z" fill="black"/>
<path d="M70.3607 39.7624C70.3485 40.5613 69.8645 41.2785 69.1283 41.5857C66.8317 42.5441 64.525 43.492 62.2104 44.4239C60.891 44.9551 59.4671 43.9679 59.4903 42.5435L59.5866 36.6489C59.5999 35.836 60.1015 35.11 60.8562 34.8113L67.7254 32.0926C69.047 31.5696 70.4705 32.5556 70.4488 33.9791L70.3607 39.7624Z" fill="black"/>
<path d="M70.1355 51.5436C70.1238 52.3509 69.6302 53.0739 68.8836 53.3777L59.2554 57.2951C59.2461 57.2989 59.236 57.3004 59.226 57.2993C59.1943 57.2961 59.1704 57.2692 59.1708 57.2372L59.2892 48.4132C59.3001 47.606 59.7927 46.8824 60.5389 46.5777L67.4783 43.7444C68.8022 43.2038 70.2425 44.1893 70.2216 45.6214L70.1355 51.5436Z" fill="black"/>
<path d="M10.5529 57.4028C9.47334 57.8427 8.2982 57.0437 8.3077 55.8762C8.313 55.2244 8.70255 54.6362 9.3 54.378L10.1614 54.0057C11.2507 53.5348 12.46 54.3372 12.4521 55.5256C12.4477 56.1948 12.0407 56.7966 11.4218 57.0487L10.5529 57.4028Z" fill="black"/>
<path d="M61.7916 67.8511C60.4698 68.3846 59.0368 67.4013 59.0556 65.9738L59.1324 60.1308C59.143 59.3215 59.638 58.5963 60.3869 58.2928L67.2781 55.5002C68.5974 54.9655 70.0305 55.9436 70.0167 57.3694L69.9603 63.2153C69.9524 64.0282 69.4557 64.7575 68.7031 65.0613L61.7916 67.8511Z" fill="black"/>
<path d="M23.0188 58.5831C22.9987 59.3975 22.486 60.1191 21.7245 60.4049L20.0354 61.0387C18.7734 61.5123 17.4364 60.564 17.4629 59.2142C17.4786 58.4144 17.9889 57.7084 18.7345 57.4221C19.3159 57.1989 19.8939 56.9692 20.4736 56.7437C21.744 56.2494 23.0525 57.2183 23.0188 58.5831Z" fill="black"/>
<path d="M57.4912 65.0348C57.4787 65.8568 56.967 66.5894 56.2005 66.8827L49.8384 69.3167C48.5234 69.8197 47.1201 68.8403 47.1357 67.4302L47.1834 63.0987C47.1924 62.2727 47.7061 61.5352 48.4768 61.2416L54.8566 58.8111C56.1745 58.3091 57.578 59.2945 57.5566 60.7069L57.4912 65.0348Z" fill="black"/>
<path d="M45.2012 63.8988C45.1885 64.7176 44.6801 65.4477 43.9174 65.7425L36.1504 68.7451C36.1418 68.7485 36.1325 68.7501 36.1232 68.7499C36.0835 68.7493 36.0519 68.7164 36.0526 68.6766L36.1473 63.5281C36.1623 62.7127 36.6688 61.9862 37.4278 61.6912L42.524 59.7111C43.8444 59.1981 45.2592 60.1848 45.237 61.6033L45.2012 63.8988Z" fill="black"/>
<path d="M33.6439 62.352C33.6225 63.1678 33.1098 63.8906 32.3478 64.1792L28.9892 65.4511C27.6789 65.9472 26.2833 64.975 26.2917 63.5719L26.2958 62.8848C26.3007 62.0705 26.7965 61.3378 27.5523 61.0374C28.6926 60.5841 29.8387 60.1391 30.9868 59.7022C32.3058 59.2003 33.7001 60.2014 33.6632 61.6143L33.6439 62.352Z" fill="black"/>
<path d="M69.7432 76.4437C69.7405 76.5176 69.6947 76.5831 69.6263 76.6108L61.611 79.8594C60.2917 80.3941 58.8586 79.416 58.8724 77.9902L58.9316 71.8856C58.9395 71.0727 59.4363 70.3434 60.1889 70.0396L67.1224 67.2411C68.4461 66.7069 69.8806 67.6939 69.8581 69.1235L69.7432 76.4437Z" fill="black"/>
<path d="M69.5496 86.9605C69.5396 87.7614 69.055 88.4811 68.3175 88.7905L58.6732 92.8359C58.6641 92.8398 58.6544 92.8416 58.6445 92.8415C58.6052 92.8408 58.574 92.8084 58.5748 92.769L58.7436 83.7994C58.7588 82.9923 59.2552 82.2715 60.003 81.9708L66.8899 79.2015C68.2108 78.6704 69.6413 79.6527 69.6234 81.0786L69.5496 86.9605Z" fill="black"/>
<path d="M11.8287 91.6562C11.8075 92.3141 11.3843 92.8909 10.7754 93.1383C10.468 93.2633 10.162 93.3923 9.85589 93.5208C8.78167 93.9718 7.66782 93.1626 7.69133 91.996C7.70425 91.3552 8.0728 90.7716 8.65791 90.5121C8.96736 90.3749 9.27878 90.2423 9.59132 90.1117C10.6686 89.6612 11.8662 90.4873 11.8287 91.6562Z" fill="black"/>
<path d="M69.3308 99.4882C69.3157 100.321 68.7889 101.058 68.0093 101.346C65.7651 102.173 63.5375 103.034 61.3398 103.991C59.9762 104.584 58.4242 103.591 58.4459 102.102L58.5399 95.6757C58.5517 94.8713 59.0418 94.1502 59.7845 93.8445L66.7024 90.9971C68.0298 90.4507 69.4765 91.4415 69.4505 92.879L69.3308 99.4882Z" fill="black"/>
<path d="M22.428 94.7396C22.4159 95.5252 21.9317 96.2272 21.2025 96.5166L19.4219 97.2232C18.1762 97.7175 16.83 96.7982 16.8342 95.4561C16.8366 94.6727 17.3183 93.9698 18.0443 93.6782C18.6517 93.4343 19.2564 93.1885 19.8624 92.9456C21.1172 92.4426 22.4489 93.3859 22.428 94.7396Z" fill="black"/>
<path d="M56.8725 100.793C56.8603 101.621 56.3421 102.358 55.5683 102.647L49.2393 105.016C47.9219 105.509 46.5266 104.522 46.5504 103.113L46.6235 98.7676C46.6373 97.9448 47.1514 97.2124 47.9195 96.9211L54.2399 94.5239C55.557 94.0244 56.9579 95.0092 56.937 96.42L56.8725 100.793Z" fill="black"/>
<path d="M38.2329 103.39C36.9158 103.892 35.5124 102.908 35.532 101.496L35.5644 99.1532C35.5758 98.3308 36.0872 97.5973 36.8541 97.3036L41.9246 95.3616C43.2414 94.8573 44.6469 95.8398 44.6286 97.252L44.5981 99.604C44.5874 100.428 44.0744 101.163 43.3053 101.457L38.2329 103.39Z" fill="black"/>
<path fill-rule="evenodd" clip-rule="evenodd" d="M116.998 27.4563C117.01 26.6999 116.6 25.9979 115.919 25.6795C111.193 23.4708 105.804 22.5453 100.27 22.6183C99.2164 22.6321 98.3841 23.5045 98.3677 24.5627L98.0192 47.0359C98.0017 48.167 98.9188 49.0802 100.044 49.0952C104.929 49.16 109.591 49.821 113.903 51.1417C115.231 51.5484 116.635 50.5908 116.657 49.1939L116.998 27.4563ZM116.527 61.946C116.54 61.1688 116.107 60.4507 115.396 60.1471C110.72 58.1486 105.27 57.402 99.7743 57.4033C98.7026 57.4036 97.8439 58.2846 97.8291 59.3613L97.5143 82.3902C97.4991 83.5018 98.3873 84.4065 99.4933 84.4303C104.366 84.5351 109.103 84.9948 113.517 86.1204C114.821 86.453 116.146 85.5006 116.168 84.147L116.527 61.946ZM126.707 18.4011C127.314 18.751 127.67 19.4113 127.659 20.1161L126.439 99.3258C126.415 100.897 124.669 101.858 123.283 101.137C112.125 95.3352 97.9412 94.407 85.0086 96.8826C81.0841 97.6484 77.2022 98.5538 73.4265 99.7177C72.1027 100.126 70.7467 99.1384 70.7711 97.7492L70.8887 91.0645C70.9034 90.228 71.4328 89.4841 72.2214 89.2117C77.1705 87.5017 82.274 86.166 87.5713 85.36C88.5569 85.21 89.3046 84.3725 89.3196 83.3718L89.6653 60.2964C89.6836 59.0732 88.6159 58.1221 87.4173 58.3434C82.8032 59.1955 78.4311 60.6542 74.1924 62.4366C72.845 63.0031 71.3427 62.0224 71.3592 60.5576L71.4091 56.1255C71.4182 55.3196 71.9059 54.5933 72.652 54.2935C77.5778 52.314 82.6611 50.7148 88.066 49.9498C89.0698 49.8077 89.843 48.9637 89.859 47.946L90.2047 26.0136C90.2246 24.7534 89.0956 23.7923 87.8677 24.0558C83.3359 25.0284 78.95 26.3743 74.7038 28.0457C73.3591 28.575 71.888 27.5913 71.906 26.1428L71.9976 18.7641C72.0078 17.9475 72.5088 17.2139 73.2708 16.9261C86.5649 11.9047 103.068 9.83135 117.172 14.3473C120.484 15.372 123.689 16.6616 126.707 18.4011Z" fill="black"/>
</g>
<defs>
<clipPath id="clip0_21_59">
<rect width="139" height="121" rx="10" fill="white"/>
</clipPath>
</defs>
</svg>
